<?xml version="1.0" standalone="no"?>
<!DOCTYPE svg PUBLIC "-//W3C//DTD SVG 20010904//EN"
 "http://www.w3.org/TR/2001/REC-SVG-20010904/DTD/svg10.dtd">
<svg version="1.0" xmlns="http://www.w3.org/2000/svg"
 width="48.305342pt" height="58.929558pt" viewBox="0 0 48.305342 58.929558"
 preserveAspectRatio="xMidYMid meet">
<metadata>
Created by potrace 1.12, written by Peter Selinger 2001-2015
</metadata>
<g transform="translate(-11.694658,69.500000) scale(0.100000,-0.100000)"
fill="#000000" stroke="none">
<path d="M308 670 c17 -23 16 -28 -18 -62 -23 -23 -30 -39 -30 -69 0 -32 -5
-41 -28 -53 -16 -8 -45 -33 -65 -55 -41 -45 -54 -97 -49 -184 l2 -29 64 3 65
4 29 -40 c16 -22 41 -50 56 -62 25 -22 27 -22 47 -5 12 9 37 37 56 62 l34 45
65 -4 64 -3 0 67 c0 91 -40 163 -112 201 -22 11 -28 22 -28 47 -1 40 -20 76
-49 91 l-22 12 22 30 23 29 -30 -27 c-37 -34 -58 -35 -87 -5 -12 13 -16 16 -9
7z m103 -63 c20 -16 39 -51 39 -74 0 -16 -10 -18 -90 -18 -80 0 -90 2 -90 18
0 24 26 74 42 80 24 10 83 6 99 -6z m65 -135 c76 -39 119 -115 112 -200 l-3
-37 -49 3 c-60 3 -124 36 -151 79 -11 18 -22 32 -25 33 -3 0 -14 -13 -23 -30
-26 -42 -93 -79 -153 -82 l-49 -3 -3 37 c-7 89 38 164 123 205 62 30 157 28
221 -5z m-71 -202 c18 -20 17 -20 -50 -20 l-67 0 23 20 c31 25 71 25 94 0z
m38 -55 c-4 -13 -21 -15 -86 -13 -53 2 -82 7 -85 16 -3 9 19 12 87 12 77 0 90
-2 84 -15z m-35 -47 c-3 -7 -16 -20 -31 -28 -23 -13 -28 -13 -46 4 -32 29 -26
36 30 36 36 0 49 -4 47 -12z"/>
</g>
</svg>
